<?xml version="1.0" standalone="no"?>
<svg xmlns="http://www.w3.org/2000/svg" xmlns:xlink="http://www.w3.org/1999/xlink" width="592pt" height="432pt" viewBox="0.00 0.00 592.08 431.56">
<g id="graph0" class="graph" transform="translate(69.6967184788237,372.20294962684966) scale(0.7578582832552002)" data-name="G">

<polygon fill="#2e3e56" stroke="transparent" points="-4,4 -4,-427.56 588.08,-427.56 588.08,4 -4,4"/>





<g id="edge1" class="edge" data-name="DEX.&lt;Constructor&gt;-&gt;DEX.IERC20">

<path fill="none" stroke="#1bc6a6" stroke-width="2" d="M439.37,-101.56C439.28,-101.56 439.2,-101.56 439.12,-101.56"/>
<polygon fill="#1bc6a6" stroke="#1bc6a6" stroke-width="2" points="448.87,-98.06 438.87,-101.56 448.87,-105.06 448.87,-98.06"/>
</g>


<!-- DEX.&lt;Constructor&gt; -->
<g id="node1" class="node" pointer-events="visible" data-name="DEX.&lt;Constructor&gt;">

<ellipse fill="#ff9797" stroke="#ff9797" stroke-width="3" cx="507.08" cy="-101.56" rx="67.55" ry="18"/>
<text text-anchor="middle" x="507.08" y="-97.36" font-family="Times,serif" font-size="14.00">&lt;Constructor&gt;</text>
</g>
<!-- DEX.IERC20 -->
<g id="node8" class="node" pointer-events="visible" data-name="DEX.IERC20">

<ellipse fill="#edad56" stroke="#edad56" stroke-width="3" cx="435.08" cy="-101.56" rx="42.88" ry="18"/>
<text text-anchor="middle" x="435.08" y="-97.36" font-family="Times,serif" font-size="14.00">IERC20</text>
</g><g id="edge2" class="edge" data-name="DEX.init-&gt;IERC20.transferFrom" data-comment="DEX.IERC20">

<path fill="none" stroke="white" stroke-width="2" d="M50.27,-318.13C50.42,-318.07 50.57,-318.01 50.72,-317.95"/>
<polygon fill="white" stroke="white" stroke-width="2" points="49.73,-322.14 57.63,-315.08 47.05,-315.68 49.73,-322.14"/>
</g>
<!-- DEX.&lt;Constructor&gt;&#45;&gt;DEX.IERC20 -->

<!-- DEX.init -->
<g id="node2" class="node" pointer-events="visible" data-name="DEX.init">

<ellipse fill="#ff9797" stroke="brown" stroke-width="3" cx="27" cy="-327.77" rx="27" ry="18"/>
<text text-anchor="middle" x="27" y="-323.57" font-family="Times,serif" font-size="14.00">init</text>
</g>
<!-- IERC20.transferFrom -->
<g id="node9" class="node" pointer-events="visible" data-name="IERC20.transferFrom">

<ellipse fill="#edad56" stroke="#edad56" stroke-width="3" cx="93.52" cy="-300.22" rx="61.41" ry="18"/>
<text text-anchor="middle" x="93.52" y="-296.02" font-family="Times,serif" font-size="14.00">transferFrom</text>
</g><g id="edge3" class="edge" data-name="DEX.price-&gt;xInput.mul" data-comment="IERC20.transferFrom">

<path fill="none" stroke="white" stroke-width="2" d="M322.93,-285.77C342.59,-283.27 368.47,-279.98 389.39,-277.33"/>
<polygon fill="white" stroke="white" stroke-width="2" points="390.04,-280.77 399.52,-276.04 389.15,-273.83 390.04,-280.77"/>
</g>
<!-- DEX.init&#45;&gt;IERC20.transferFrom -->

<!-- DEX.price -->
<g id="node3" class="node" pointer-events="visible" data-name="DEX.price">

<ellipse fill="#ff9797" stroke="#ff9797" stroke-width="3" cx="293.08" cy="-289.56" rx="30.17" ry="18"/>
<text text-anchor="middle" x="293.08" y="-285.36" font-family="Times,serif" font-size="14.00">price</text>
</g><g id="edge4" class="edge" data-name="DEX.price-&gt;xInputWithFee.mul" data-comment="DEX.price">

<path fill="none" stroke="white" stroke-width="2" d="M307.56,-305.6C313.55,-312.24 320.62,-320.07 327.17,-327.32"/>
<polygon fill="white" stroke="white" stroke-width="2" points="324.69,-329.8 333.99,-334.88 329.89,-325.11 324.69,-329.8"/>
</g>
<!-- xInput.mul -->
<g id="node12" class="node" pointer-events="visible" data-name="xInput.mul">

<ellipse fill="#edad56" stroke="#edad56" stroke-width="3" cx="426.12" cy="-272.66" rx="27" ry="18"/>
<text text-anchor="middle" x="426.12" y="-268.46" font-family="Times,serif" font-size="14.00">mul</text>
</g>
<!-- DEX.price&#45;&gt;xInput.mul -->
<g id="edge5" class="edge" data-name="DEX.price-&gt;xReserves.mul" data-comment="DEX.price-&gt;xInput.mul">

<path fill="none" stroke="white" stroke-width="2" d="M278.6,-305.6C272.6,-312.24 265.53,-320.07 258.99,-327.32"/>
<polygon fill="white" stroke="white" stroke-width="2" points="256.27,-325.11 252.16,-334.88 261.46,-329.8 256.27,-325.11"/>
</g>
<!-- xInputWithFee.mul -->
<g id="node13" class="node" pointer-events="visible" data-name="xInputWithFee.mul">

<ellipse fill="#edad56" stroke="#edad56" stroke-width="3" cx="348.18" cy="-350.6" rx="27" ry="18"/>
<text text-anchor="middle" x="348.18" y="-346.4" font-family="Times,serif" font-size="14.00">mul</text>
</g>
<!-- DEX.price&#45;&gt;xInputWithFee.mul -->
<g id="edge7" class="edge" data-name="DEX.ethToToken-&gt;DEX.price" data-comment="DEX.price-&gt;xInputWithFee.mul">

<path fill="none" stroke="#1bc6a6" stroke-width="2" d="M293.08,-235.73C293.08,-243.43 293.08,-252.58 293.08,-261.14"/>
<polygon fill="#1bc6a6" stroke="#1bc6a6" stroke-width="2" points="289.58,-261.14 293.08,-271.14 296.58,-261.14 289.58,-261.14"/>
</g>
<!-- xReserves.mul -->
<g id="node14" class="node" pointer-events="visible" data-name="xReserves.mul">

<ellipse fill="#edad56" stroke="#edad56" stroke-width="3" cx="237.97" cy="-350.6" rx="27" ry="18"/>
<text text-anchor="middle" x="237.97" y="-346.4" font-family="Times,serif" font-size="14.00">mul</text>
</g>
<!-- DEX.price&#45;&gt;xReserves.mul -->
<g id="edge6" class="edge" data-name="DEX.ethToToken-&gt;IERC20.balanceOf" data-comment="DEX.price-&gt;xReserves.mul">

<path fill="none" stroke="white" stroke-width="2" d="M285.55,-199.38C282.88,-192.93 279.8,-185.51 276.88,-178.46"/>
<polygon fill="white" stroke="white" stroke-width="2" points="280.1,-177.09 273.04,-169.19 273.64,-179.77 280.1,-177.09"/>
</g>
<!-- DEX.ethToToken -->
<g id="node4" class="node" pointer-events="visible" data-name="DEX.ethToToken">

<ellipse fill="#ff9797" stroke="brown" stroke-width="3" cx="293.08" cy="-217.56" rx="58.46" ry="18"/>
<text text-anchor="middle" x="293.08" y="-213.36" font-family="Times,serif" font-size="14.00">ethToToken</text>
</g>
<!-- DEX.ethToToken&#45;&gt;DEX.price -->
<g id="edge8" class="edge" data-name="DEX.ethToToken-&gt;IERC20.transfer" data-comment="DEX.ethToToken-&gt;DEX.price">

<path fill="none" stroke="white" stroke-width="2" d="M328.28,-202.97C328.41,-202.92 328.53,-202.87 328.66,-202.82"/>
<polygon fill="white" stroke="white" stroke-width="2" points="321.88,-209.42 329.78,-202.36 319.2,-202.95 321.88,-209.42"/>
</g>
<!-- IERC20.balanceOf --><!-- DEX.tokenToEth -->
<g id="node10" class="node" pointer-events="visible" data-name="IERC20.balanceOf" data-comment="DEX.tokenToEth">

<ellipse fill="#edad56" stroke="#edad56" stroke-width="3" cx="265.52" cy="-151.04" rx="50.92" ry="18"/>
<text text-anchor="middle" x="265.52" y="-146.84" font-family="Times,serif" font-size="14.00">balanceOf</text>
</g>
<!-- DEX.ethToToken&#45;&gt;IERC20.balanceOf --><!-- DEX.tokenToEth&#45;&gt;DEX.price -->
<g id="edge10" class="edge" data-name="DEX.tokenToEth-&gt;DEX.price">

<path fill="none" stroke="#1bc6a6" stroke-width="2" d="M213,-279.39C226.36,-281.09 240.48,-282.88 253.09,-284.48"/>
<polygon fill="#1bc6a6" stroke="#1bc6a6" stroke-width="2" points="252.9,-287.98 263.26,-285.77 253.79,-281.04 252.9,-287.98"/>
</g>
<!-- IERC20.transfer --><!-- DEX.tokenToEth&#45;&gt;IERC20.transferFrom -->
<g id="node11" class="node" pointer-events="visible" data-name="IERC20.transfer" data-comment="DEX.tokenToEth-&gt;IERC20.transferFrom">

<ellipse fill="#edad56" stroke="#edad56" stroke-width="3" cx="359.6" cy="-190" rx="40.55" ry="18"/>
<text text-anchor="middle" x="359.6" y="-185.8" font-family="Times,serif" font-size="14.00">transfer</text>
</g><g id="edge11" class="edge" data-name="DEX.tokenToEth-&gt;IERC20.transferFrom">

<path fill="none" stroke="white" stroke-width="2" d="M125.22,-287.09C125.16,-287.11 125.09,-287.14 125.03,-287.16"/>
<polygon fill="white" stroke="white" stroke-width="2" points="132.74,-280.18 124.84,-287.24 135.42,-286.65 132.74,-280.18"/>
</g>
<!-- DEX.ethToToken&#45;&gt;IERC20.transfer --><!-- DEX.tokenToEth&#45;&gt;IERC20.balanceOf -->
<g id="edge9" class="edge" data-name="DEX.tokenToEth-&gt;IERC20.balanceOf">

<path fill="none" stroke="white" stroke-width="2" d="M175.15,-255.24C193.09,-234.56 223.14,-199.9 243.63,-176.29"/>
<polygon fill="white" stroke="white" stroke-width="2" points="246.53,-178.28 250.44,-168.43 241.24,-173.69 246.53,-178.28"/>
</g>
<g id="node5" class="node" pointer-events="visible" data-name="DEX.tokenToEth" data-comment="DEX.tokenToEth-&gt;IERC20.balanceOf">

<ellipse fill="#ff9797" stroke="#ff9797" stroke-width="3" cx="160.04" cy="-272.66" rx="56.76" ry="18"/>
<text text-anchor="middle" x="160.04" y="-268.46" font-family="Times,serif" font-size="14.00">tokenToEth</text>
</g><!-- DEX.deposit -->
<g id="node6" class="node" pointer-events="visible" data-name="DEX.deposit">

<ellipse fill="#ff9797" stroke="brown" stroke-width="3" cx="160.04" cy="-162.45" rx="38.86" ry="18"/>
<text text-anchor="middle" x="160.04" y="-158.25" font-family="Times,serif" font-size="14.00">deposit</text>
</g>
<!-- DEX.deposit&#45;&gt;IERC20.transferFrom -->
<g id="edge14" class="edge" data-name="DEX.deposit-&gt;IERC20.transferFrom">

<path fill="none" stroke="white" stroke-width="2" d="M151.48,-180.18C140.12,-203.71 119.94,-245.49 106.65,-273.03"/>
<polygon fill="white" stroke="white" stroke-width="2" points="103.45,-271.59 102.26,-282.12 109.76,-274.64 103.45,-271.59"/>
</g>
<!-- DEX.deposit&#45;&gt;IERC20.balanceOf -->
<g id="edge12" class="edge" data-name="DEX.deposit-&gt;IERC20.balanceOf">

<path fill="none" stroke="white" stroke-width="2" d="M198.12,-158.33C200.85,-158.04 203.63,-157.73 206.44,-157.43"/>
<polygon fill="white" stroke="white" stroke-width="2" points="207.1,-160.88 216.66,-156.33 206.34,-153.92 207.1,-160.88"/>
</g>
<!-- totalLiquidity.add -->
<g id="node15" class="node" pointer-events="visible" data-name="totalLiquidity.add">

<ellipse fill="#edad56" stroke="#edad56" stroke-width="3" cx="93.52" cy="-134.9" rx="27" ry="18"/>
<text text-anchor="middle" x="93.52" y="-130.7" font-family="Times,serif" font-size="14.00">add</text>
</g>
<!-- DEX.deposit&#45;&gt;totalLiquidity.add -->
<g id="edge13" class="edge" data-name="DEX.deposit-&gt;totalLiquidity.add">

<path fill="none" stroke="white" stroke-width="2" d="M130.67,-150.29C129.19,-149.67 127.7,-149.06 126.21,-148.44"/>
<polygon fill="white" stroke="white" stroke-width="2" points="127.12,-145.03 116.54,-144.43 124.44,-151.49 127.12,-145.03"/>
</g>
<!-- DEX.withdraw -->
<g id="node7" class="node" pointer-events="visible" data-name="DEX.withdraw">

<ellipse fill="#ff9797" stroke="#ff9797" stroke-width="3" cx="293.08" cy="-73.56" rx="47.52" ry="18"/>
<text text-anchor="middle" x="293.08" y="-69.36" font-family="Times,serif" font-size="14.00">withdraw</text>
</g>
<!-- DEX.withdraw&#45;&gt;IERC20.balanceOf -->
<g id="edge15" class="edge" data-name="DEX.withdraw-&gt;IERC20.balanceOf">

<path fill="none" stroke="white" stroke-width="2" d="M286.69,-91.53C283.31,-101.01 279.1,-112.86 275.33,-123.48"/>
<polygon fill="white" stroke="white" stroke-width="2" points="271.93,-122.57 271.88,-133.17 278.53,-124.92 271.93,-122.57"/>
</g>
<!-- DEX.withdraw&#45;&gt;IERC20.transfer -->
<g id="edge19" class="edge" data-name="DEX.withdraw-&gt;IERC20.transfer">

<path fill="none" stroke="white" stroke-width="2" d="M303.18,-91.24C314.18,-110.51 331.9,-141.52 344.54,-163.65"/>
<polygon fill="white" stroke="white" stroke-width="2" points="341.62,-165.59 349.62,-172.53 347.7,-162.11 341.62,-165.59"/>
</g>
<!-- totalLiquidity.sub -->
<g id="node16" class="node" pointer-events="visible" data-name="totalLiquidity.sub">

<ellipse fill="#edad56" stroke="#edad56" stroke-width="3" cx="210.42" cy="-18" rx="27" ry="18"/>
<text text-anchor="middle" x="210.42" y="-13.8" font-family="Times,serif" font-size="14.00">sub</text>
</g>
<!-- DEX.withdraw&#45;&gt;totalLiquidity.sub -->
<g id="edge18" class="edge" data-name="DEX.withdraw-&gt;totalLiquidity.sub">

<path fill="none" stroke="white" stroke-width="2" d="M269.61,-57.79C259.79,-51.19 248.31,-43.47 238.08,-36.59"/>
<polygon fill="white" stroke="white" stroke-width="2" points="239.74,-33.49 229.49,-30.82 235.84,-39.3 239.74,-33.49"/>
</g>
<!-- amount.mul -->
<g id="node17" class="node" pointer-events="visible" data-name="amount.mul">

<ellipse fill="#edad56" stroke="#edad56" stroke-width="3" cx="375.74" cy="-18" rx="27" ry="18"/>
<text text-anchor="middle" x="375.74" y="-13.8" font-family="Times,serif" font-size="14.00">mul</text>
</g>
<!-- DEX.withdraw&#45;&gt;amount.mul -->
<g id="edge16" class="edge" data-name="DEX.withdraw-&gt;amount.mul">

<path fill="none" stroke="white" stroke-width="2" d="M324.65,-60.08C334.42,-54.08 344.97,-46.94 353.93,-40.22"/>
<polygon fill="white" stroke="white" stroke-width="2" points="356.24,-42.86 361.98,-33.95 351.94,-37.34 356.24,-42.86"/>
</g>
<!-- DEX.withdraw&#45;&gt;amount.mul -->
<g id="edge17" class="edge" data-name="DEX.withdraw-&gt;amount.mul">

<path fill="none" stroke="white" stroke-width="2" d="M308.23,-56.48C318.03,-48.64 331.12,-39.54 343.17,-32.09"/>
<polygon fill="white" stroke="white" stroke-width="2" points="345.32,-34.88 352.12,-26.76 341.74,-28.87 345.32,-34.88"/>
</g>
<!-- key -->
<g id="node18" class="node" pointer-events="visible" data-name="key">

<polygon fill="#edad56" stroke="transparent" stroke-width="3" points="584.08,-423.56 454.08,-423.56 454.08,-335.56 584.08,-335.56 584.08,-423.56"/>
<text text-anchor="start" x="503.72" y="-404.96" font-family="Times,serif" font-size="14.00">Internal Call</text>
<text text-anchor="start" x="499.83" y="-384.96" font-family="Times,serif" font-size="14.00">External Call</text>
<text text-anchor="start" x="477.28" y="-364.96" font-family="Times,serif" font-size="14.00">Defined Contract</text>
<text text-anchor="start" x="463.68" y="-344.96" font-family="Times,serif" font-size="14.00">Undefined Contract</text>
</g>
<!-- key2 -->
<g id="node19" class="node" pointer-events="visible" data-name="key2">

<polygon fill="#edad56" stroke="transparent" stroke-width="3" points="474.08,-423.56 420.08,-423.56 420.08,-335.56 474.08,-335.56 474.08,-423.56"/>
<text text-anchor="start" x="437.08" y="-404.96" font-family="Times,serif" font-size="14.00">   </text>
<text text-anchor="start" x="437.08" y="-384.96" font-family="Times,serif" font-size="14.00">   </text>
<polygon fill="#445773" stroke="transparent" points="435.08,-359.56 435.08,-379.56 460.08,-379.56 460.08,-359.56 435.08,-359.56"/>
<text text-anchor="start" x="437.08" y="-364.96" font-family="Times,serif" font-size="14.00">   </text>
<polygon fill="none" stroke="#e8726d" points="437.08,-341.56 437.08,-357.56 458.08,-357.56 458.08,-341.56 437.08,-341.56"/>
</g>
<!-- key&#45;&gt;key2 -->
<g id="edge20" class="edge" data-name="key-&gt;key2">

<path fill="none" stroke="#1bc6a6" stroke-width="2" d="M576.08,-409.56C576.08,-409.56 477.55,-409.56 445.22,-409.56" style=""/>
<polygon fill="#1bc6a6" stroke="#1bc6a6" stroke-width="2" points="445.08,-406.06 435.08,-409.56 445.08,-413.06 445.08,-406.06" style=""/>
</g>
<!-- key&#45;&gt;key2 -->
<g id="edge21" class="edge" data-name="key-&gt;key2">

<path fill="none" stroke="white" stroke-width="2" d="M576.08,-389.56C576.08,-389.56 477.55,-389.56 445.22,-389.56" style=""/>
<polygon fill="white" stroke="white" stroke-width="2" points="445.08,-386.06 435.08,-389.56 445.08,-393.06 445.08,-386.06" style=""/>
</g>
</g>
</svg>